<svg width="12" height="11" viewBox="0 0 12 11" fill="none" xmlns="http://www.w3.org/2000/svg">
<g clip-path="url(#clip0_4_14)">
<path d="M10.9457 10.2079L8.214 7.48097C8.86033 6.6903 9.24993 5.684 9.24993 4.5856C9.24993 2.05861 7.18934 0.00107574 4.65356 0.00107574C2.11779 0.00107574 0.0594482 2.05861 0.0594482 4.5856C0.0594482 7.11259 2.12004 9.16787 4.65582 9.16787C5.7548 9.16787 6.76596 8.77928 7.55867 8.13462L10.2904 10.8593C10.4773 11.0457 10.761 11.0457 10.948 10.8593C11.1349 10.6728 11.1349 10.3943 10.9457 10.2079ZM0.976019 4.5856C0.976019 2.56176 2.6245 0.917531 4.65356 0.917531C6.68263 0.917531 8.33336 2.56401 8.33336 4.58784C8.33336 6.61168 6.68263 8.25816 4.65356 8.25816C2.6245 8.25816 0.976019 6.60944 0.976019 4.5856Z" fill="#878787"/>
</g>
<defs>
<clipPath id="clip0_4_14">
<rect width="11.0284" height="11" fill="white" transform="translate(0.0594482)"/>
</clipPath>
</defs>
</svg>
